<svg width="174" height="40" viewBox="0 0 174 40" fill="none" xmlns="http://www.w3.org/2000/svg">
<path d="M76.368 12.32V29H73.632V17.576L68.544 29H66.648L61.536 17.576V29H58.8V12.32H61.752L67.608 25.4L73.44 12.32H76.368ZM91.8681 15.776L83.7561 35.216H80.9241L83.6121 28.784L78.4041 15.776H81.4521L85.1721 25.856L89.0361 15.776H91.8681Z" fill="white"/>
<path d="M116.181 12.248L111.501 29H107.541L104.397 17.072L101.109 29L97.1728 29.024L92.6608 12.248H96.2608L99.2128 25.256L102.621 12.248H106.365L109.581 25.184L112.557 12.248H116.181ZM117.511 22.304C117.511 20.96 117.775 19.768 118.303 18.728C118.847 17.688 119.575 16.888 120.487 16.328C121.415 15.768 122.447 15.488 123.583 15.488C124.575 15.488 125.439 15.688 126.175 16.088C126.927 16.488 127.527 16.992 127.975 17.6V15.704H131.359V29H127.975V27.056C127.543 27.68 126.943 28.2 126.175 28.616C125.423 29.016 124.551 29.216 123.559 29.216C122.439 29.216 121.415 28.928 120.487 28.352C119.575 27.776 118.847 26.968 118.303 25.928C117.775 24.872 117.511 23.664 117.511 22.304ZM127.975 22.352C127.975 21.536 127.815 20.84 127.495 20.264C127.175 19.672 126.743 19.224 126.199 18.92C125.655 18.6 125.071 18.44 124.447 18.44C123.823 18.44 123.247 18.592 122.719 18.896C122.191 19.2 121.759 19.648 121.423 20.24C121.103 20.816 120.943 21.504 120.943 22.304C120.943 23.104 121.103 23.808 121.423 24.416C121.759 25.008 122.191 25.464 122.719 25.784C123.263 26.104 123.839 26.264 124.447 26.264C125.071 26.264 125.655 26.112 126.199 25.808C126.743 25.488 127.175 25.04 127.495 24.464C127.815 23.872 127.975 23.168 127.975 22.352ZM138 11.24V29H134.64V11.24H138ZM144.68 11.24V29H141.32V11.24H144.68ZM160.36 22.064C160.36 22.544 160.328 22.976 160.264 23.36H150.544C150.624 24.32 150.96 25.072 151.552 25.616C152.144 26.16 152.872 26.432 153.736 26.432C154.984 26.432 155.872 25.896 156.4 24.824H160.024C159.64 26.104 158.904 27.16 157.816 27.992C156.728 28.808 155.392 29.216 153.808 29.216C152.528 29.216 151.376 28.936 150.352 28.376C149.344 27.8 148.552 26.992 147.976 25.952C147.416 24.912 147.136 23.712 147.136 22.352C147.136 20.976 147.416 19.768 147.976 18.728C148.536 17.688 149.32 16.888 150.328 16.328C151.336 15.768 152.496 15.488 153.808 15.488C155.072 15.488 156.2 15.76 157.192 16.304C158.2 16.848 158.976 17.624 159.52 18.632C160.08 19.624 160.36 20.768 160.36 22.064ZM156.88 21.104C156.864 20.24 156.552 19.552 155.944 19.04C155.336 18.512 154.592 18.248 153.712 18.248C152.88 18.248 152.176 18.504 151.6 19.016C151.04 19.512 150.696 20.208 150.568 21.104H156.88ZM166.724 18.464V24.896C166.724 25.344 166.828 25.672 167.036 25.88C167.26 26.072 167.628 26.168 168.14 26.168H169.7V29H167.588C164.756 29 163.34 27.624 163.34 24.872V18.464H161.756V15.704H163.34V12.416H166.724V15.704H169.7V18.464H166.724Z" fill="#33CC95"/>
<path d="M34.1422 5.85781C30.3647 2.08031 25.3422 0 20 0C14.6578 0 9.63531 2.08031 5.85781 5.85781C2.08031 9.63531 0 14.6578 0 20C0 25.3422 2.08039 30.3646 5.85781 34.1422C9.63523 37.9198 14.6578 40 20 40C25.3422 40 30.3647 37.9197 34.1422 34.1422C37.9197 30.3647 40 25.3422 40 20C40 14.6578 37.9196 9.63539 34.1422 5.85781Z" fill="#33CC95"/>
<g clip-path="url(#clip0)">
<path d="M20.5714 8V33.1429" stroke="white" stroke-width="2" stroke-linecap="round" stroke-linejoin="round"/>
<path d="M26.2857 12.5714H17.7143C16.6534 12.5714 15.636 12.9929 14.8859 13.743C14.1357 14.4931 13.7143 15.5106 13.7143 16.5714C13.7143 17.6323 14.1357 18.6497 14.8859 19.3999C15.636 20.15 16.6534 20.5714 17.7143 20.5714H23.4286C24.4894 20.5714 25.5069 20.9929 26.257 21.743C27.0072 22.4932 27.4286 23.5106 27.4286 24.5714C27.4286 25.6323 27.0072 26.6497 26.257 27.3999C25.5069 28.15 24.4894 28.5714 23.4286 28.5714H13.7143" stroke="white" stroke-width="2" stroke-linecap="round" stroke-linejoin="round"/>
</g>
<defs>
<clipPath id="clip0">
<rect width="27.4286" height="27.4286" fill="white" transform="translate(6.85715 6.85714)"/>
</clipPath>
</defs>
</svg>
